Coordinates
version=1
nRows=5
nColumns=46
inDegrees=yes

Units are S.I. units (second, meters, Newtons, ...)
Angles are in degrees.

endheader
time	pelvis_tilt	pelvis_list	pelvis_rotation	pelvis_tx	pelvis_ty	pelvis_tz	bb_angle	bb_tx	bb_ty	bb_tz	hip_flexion_r	hip_adduction_r	hip_rotation_r	knee_angle_r	knee_angle_r_beta	ankle_angle_r	subtalar_angle_r	mtp_angle_r	crank_angle_r	hip_flexion_l	hip_adduction_l	hip_rotation_l	knee_angle_l	knee_angle_l_beta	ankle_angle_l	subtalar_angle_l	mtp_angle_l	crank_angle_l	lumbar_extension	lumbar_bending	lumbar_rotation	arm_flex_r	arm_add_r	arm_rot_r	elbow_flex_r	pro_sup_r	wrist_flex_r	wrist_dev_r	arm_flex_l	arm_add_l	arm_rot_l	elbow_flex_l	pro_sup_l	wrist_flex_l	wrist_dev_l
      5.00500000	    -13.77627945	    -10.13487344	     -3.11341461	      0.18801943	      1.06256096	     -0.25894086	      0.00000000	      0.50000000	      0.00000000	      0.25000000	     81.41634752	      4.11889392	      1.73241372	    103.21553840	      1.80145098	     20.89899533	      1.05599184	      0.00000000	      0.00000000	     37.63056957	    -14.70376524	      0.75553000	     45.56741678	      0.79530145	     -8.34131437	     -7.99541482	      0.00000000	      0.00000000	    -69.69661193	     10.83751739	     11.86707810	     89.43089160	     -6.59129643	     20.52394615	     63.06629254	     41.00319350	      0.00000000	      0.00000000	     83.14694271	    -18.21317267	     17.59893166	     64.20973989	     42.34447680	      0.00000000	      0.00000000
      5.01000000	    -13.54164028	     -9.90840966	     -2.80642159	      0.18789085	      1.06347001	     -0.25749602	      0.00000000	      0.50000000	      0.00000000	      0.25000000	     80.28361213	      4.10362012	      1.71236631	    101.09131982	      1.76437638	     22.18035685	      0.21182282	      0.00000000	      0.00000000	     38.08769146	    -14.39081692	      1.27976818	     47.93238363	      0.83657791	     -8.22473328	     -8.84463073	      0.00000000	      0.00000000	    -69.91104462	     10.50187715	     11.37032198	     89.40122116	     -6.72048277	     20.47709624	     63.15186182	     40.96729745	      0.00000000	      0.00000000	     83.34835758	    -18.01777893	     17.49246110	     64.23952673	     42.35444759	      0.00000000	      0.00000000
      5.01500000	    -13.35304217	     -9.92657224	     -2.38063795	      0.18763584	      1.06421636	     -0.25635258	      0.00000000	      0.50000000	      0.00000000	      0.25000000	     79.05973537	      3.96097775	      1.32347375	     98.70847952	      1.72278797	     23.12080278	     -0.82034970	      0.00000000	      0.00000000	     38.75376866	    -14.13611099	      2.31321605	     50.39889543	      0.87962666	     -8.09448507	     -9.67841715	      0.00000000	      0.00000000	    -70.13072366	     10.45194773	     11.14363039	     89.39977459	     -6.86572350	     20.39093740	     63.35400505	     40.88713967	      0.00000000	      0.00000000	     83.61281311	    -17.72481305	     17.21876739	     64.22691893	     42.36405131	      0.00000000	      0.00000000
      5.02000000	    -13.10962038	     -9.58609572	     -2.10597889	      0.18763372	      1.06482899	     -0.25492072	      0.00000000	      0.50000000	      0.00000000	      0.25000000	     77.76175716	      3.84050596	      1.32948816	     96.33013549	      1.68127803	     24.13549106	     -1.56593931	      0.00000000	      0.00000000	     39.28062272	    -13.69476910	      2.88432434	     52.91774307	      0.92358885	     -7.78550729	    -10.06735799	      0.00000000	      0.00000000	    -70.29514878	      9.98175139	     10.52058646	     89.37110479	     -7.02336484	     20.31648037	     63.36667713	     40.83304980	      0.00000000	      0.00000000	     83.90922635	    -17.48845998	     17.06134950	     64.30598064	     42.38019200	      0.00000000	      0.00000000
      5.02500000	    -12.79896584	     -9.22294987	     -1.75551232	      0.18754984	      1.06528234	     -0.25359479	      0.00000000	      0.50000000	      0.00000000	      0.25000000	     76.38033150	      3.69185459	      1.38832154	     93.92292980	      1.63926437	     24.85216907	     -2.32170363	      0.00000000	      0.00000000	     39.82001538	    -13.17893861	      3.51442040	     55.52370703	      0.96907150	     -7.40126954	    -10.33550884	      0.00000000	      0.00000000	    -70.49823905	      9.55894520	      9.84335179	     89.34129480	     -7.15139915	     20.23686167	     63.33589864	     40.77879895	      0.00000000	      0.00000000	     84.20305652	    -17.24926346	     16.89575388	     64.38909336	     42.39468607	      0.00000000	      0.00000000
